<svg width="240" height="59" viewBox="0 0 240 59" fill="none" xmlns="http://www.w3.org/2000/svg">
<path d="M30.4967 1.64593C28.2239 2.21412 27.4934 4.16217 29.3603 4.81152C30.5778 5.29853 30.172 6.59723 28.8733 6.59723C28.2239 6.59723 27.6558 6.92191 27.6558 7.40892C27.6558 9.0323 30.172 8.22061 32.12 5.94788C33.9869 3.83749 34.8798 0.834246 33.5811 0.996583C33.1752 1.07775 31.8765 1.32126 30.4967 1.64593Z" fill="#EC4015"/>
<path d="M27.6558 12.1979C27.6558 13.1719 28.0616 13.9025 28.4675 13.9025C28.9545 13.9025 29.2791 13.4155 29.2791 12.7661C29.2791 12.1168 28.9545 11.3051 28.4675 11.0616C28.0616 10.8181 27.6558 11.3051 27.6558 12.1979Z" fill="#EC4015"/>
<path d="M34.8797 11.4674C33.9868 12.0356 33.9868 12.8473 34.7173 15.6882C35.3667 18.2044 35.3667 19.422 34.7985 20.2336C34.1491 20.9642 34.1491 21.5323 34.7985 22.1817C35.3667 22.7499 35.7725 23.8862 35.7725 24.8603C35.7725 25.7531 36.503 26.9707 37.3959 27.5388C39.1004 28.594 39.6686 30.9479 38.2076 30.9479C37.8017 30.9479 37.3959 31.6784 37.3959 32.4901C37.3959 33.383 37.0712 34.357 36.5842 34.6005C36.1784 34.844 35.6913 35.8992 35.6913 36.8733C35.6102 37.8473 35.2855 36.7921 34.7985 34.6005C33.8245 29.081 31.3894 24.2109 28.7108 22.0194C27.4933 21.0453 26.2758 19.5031 26.0323 18.5291C24.9771 14.5518 18.6459 17.1492 18.8082 21.5323C18.8082 23.2369 18.8894 23.2369 19.5387 21.6135C20.1069 20.3148 20.2693 20.4772 20.2693 22.831C20.3504 24.9414 20.1069 25.3473 19.5387 24.4544C19.0517 23.6427 18.7271 23.5616 18.7271 24.2109C18.7271 24.7791 18.1589 25.2661 17.5095 25.2661C16.5355 25.2661 16.292 26.4025 16.292 30.6233C16.292 36.2239 17.5907 38.8213 20.0258 37.9284C20.7563 37.6038 21.081 37.7661 20.6751 38.3343C20.3504 38.9025 20.5939 39.146 21.2433 38.9025C21.8926 38.659 23.6784 39.0648 25.2206 39.8765C30.4965 42.5551 32.1199 43.0421 35.7725 43.3668C37.8017 43.5291 40.0745 43.9349 40.805 44.2596C41.8602 44.7466 42.1037 44.5031 41.6978 42.9609C41.292 41.4187 41.4543 41.2564 42.3472 42.0681C43.8894 43.6103 44.4576 43.3668 45.8374 40.5259C47.542 37.1168 47.6232 30.9479 45.9186 30.9479C45.0258 30.9479 44.7823 30.3797 45.1881 28.9187C45.5128 27.7012 45.3504 26.8895 44.7823 26.8895C44.2952 26.8895 43.8894 26.3213 43.8894 25.672C43.8894 25.0226 43.4024 24.4544 42.753 24.4544C42.1037 24.4544 41.292 23.3181 41.0485 21.857C40.7238 20.4772 39.9933 18.7726 39.3439 18.2044C38.6946 17.5551 38.4511 16.1752 38.6946 14.8765C39.1816 12.3603 36.8277 10.331 34.8797 11.4674ZM26.3569 23.0746C26.8439 23.8051 26.9251 24.6168 26.6004 24.9414C25.8699 25.672 23.5972 23.7239 23.5972 22.2629C23.5972 20.8018 25.2206 21.2888 26.3569 23.0746ZM35.2043 39.5518C35.4478 39.7953 35.4478 40.5259 35.2043 41.1752C34.8797 42.0681 34.4738 42.1492 33.6621 41.4187C33.0128 40.9317 32.5258 40.2012 32.5258 39.7953C32.5258 38.9836 34.4738 38.8213 35.2043 39.5518Z" fill="#EC4015"/>
<path d="M125.058 21.2077V30.1362H127.412C129.604 30.1362 129.847 29.8927 130.091 27.0518L130.334 24.0486L134.88 23.8051C138.857 23.5616 139.587 23.318 140.399 21.5323C140.886 20.396 141.292 18.3668 141.292 16.9057C141.292 13.4155 138.694 12.2791 130.983 12.2791H125.058V21.2077ZM136.99 17.068C137.558 17.7986 137.883 18.6914 137.72 19.1784C137.396 20.396 131.308 21.2077 130.172 20.2336C128.873 19.1784 128.792 16.9869 130.009 15.7693C131.227 14.5518 135.691 15.3635 136.99 17.068ZM128.143 21.5323C128.386 22.5064 128.061 22.9122 127.331 22.6687C126.763 22.4252 126.113 21.6135 126.032 20.883C125.789 19.909 126.113 19.5031 126.844 19.7466C127.412 19.9901 128.061 20.8018 128.143 21.5323Z" fill="#EC4015"/>
<path d="M149.409 13.4966C149.409 14.146 149.003 14.7142 148.516 14.7142C148.029 14.7142 147.867 15.4447 148.192 16.3375C148.516 17.3927 148.273 18.1232 147.461 18.4479C146.731 18.6914 146.162 19.8278 146.162 20.8018C146.162 21.857 145.838 22.9934 145.351 23.2369C144.295 23.8862 144.295 27.7012 145.27 27.7012C145.757 27.7012 146.325 27.2953 146.568 26.8895C146.812 26.4025 146.649 26.0778 146.244 26.0778C145.757 26.0778 145.351 25.672 145.351 25.1849C145.351 24.6168 146.081 24.4544 147.055 24.6979C149.247 25.2661 153.468 24.5356 153.468 23.5616C153.468 23.1557 152.656 22.9122 151.682 23.0745C149.328 23.3181 148.76 20.8018 150.708 18.6914C152.007 17.2304 152.25 17.1492 153.143 18.2856C153.955 19.422 154.198 19.422 155.01 18.4479C156.633 16.4999 153.792 12.2791 150.87 12.2791C150.058 12.2791 149.409 12.8473 149.409 13.4966Z" fill="#EC4015"/>
<path d="M162.396 14.7142C160.204 17.7986 160.366 19.909 162.883 21.9382C165.318 23.8051 169.376 24.2109 169.944 22.5875C170.269 21.9382 170.594 21.857 171.081 22.5064C171.405 22.9934 172.379 23.5616 173.191 23.8862C173.922 24.1297 174.571 24.7791 174.571 25.1849C174.571 26.7271 172.461 27.2142 167.59 26.9706C163.532 26.8083 162.558 26.9706 162.071 28.107C161.665 29.2434 161.34 29.3245 160.366 28.5129C159.636 27.9447 158.824 27.7012 158.581 28.0258C157.201 29.3245 160.853 30.1362 168.565 30.1362C177.655 30.1362 178.629 29.6492 178.629 25.4284C178.629 21.37 176.925 20.0713 172.136 20.6395C167.753 21.2077 165.318 19.9901 165.805 17.4739C166.048 16.1752 166.86 15.9317 171.568 15.6882C176.194 15.5258 177.006 15.2012 177.006 13.9836C177.006 12.6849 176.276 12.4414 170.513 12.4414C164.344 12.4414 163.938 12.5226 162.396 14.7142Z" fill="#EC4015"/>
<path d="M182.039 14.3083C180.74 15.5259 180.172 16.8246 180.415 18.2856L180.659 20.4772L183.419 18.0421C185.935 15.7694 186.747 15.5259 191.373 15.5259C195.837 15.5259 196.487 15.3635 196.487 13.9837C196.487 12.5226 195.837 12.4415 190.237 12.4415C184.799 12.4415 183.662 12.685 182.039 14.3083Z" fill="#EC4015"/>
<path d="M199.815 21.2077L199.733 30.1362H202.168H204.685L204.522 21.2077L204.441 12.2791H202.168H199.896L199.815 21.2077Z" fill="#EC4015"/>
<path d="M205.416 13.0908C205.416 13.4966 206.146 15.0388 207.039 16.4999C208.094 18.2856 208.662 18.6914 208.662 17.7174C208.662 16.9869 209.068 16.3375 209.474 16.3375C209.961 16.3375 210.123 17.5551 209.799 19.5031C209.393 22.1005 209.636 23.1557 211.016 24.9414C211.909 26.159 212.721 27.7823 212.721 28.594C212.721 29.7304 213.289 30.1362 214.993 30.1362C216.942 30.1362 217.591 29.568 219.052 26.2401C220.026 24.0486 220.838 21.857 220.838 21.37C220.838 20.8018 221.243 20.396 221.649 20.396C222.136 20.396 222.461 19.5031 222.461 18.4479C222.461 17.3116 222.867 16.1752 223.273 15.9317C224.815 14.9577 224.166 12.2791 222.461 12.2791C221.325 12.2791 220.838 12.8473 220.838 13.9836C220.838 14.8765 220.513 15.3635 220.026 15.12C219.62 14.8765 219.214 15.3635 219.214 16.2564C219.214 17.1492 218.89 18.1232 218.403 18.3668C217.997 18.6103 217.51 20.2336 217.51 21.857C217.429 23.4804 217.185 24.1297 217.023 23.318C216.698 22.1005 216.454 22.0193 215.886 22.9122C215.318 23.8051 214.993 23.7239 214.019 22.4252C213.289 21.5323 212.721 19.9901 212.721 18.9349C212.721 17.9609 212.396 17.1492 211.909 17.1492C211.503 17.1492 211.097 16.6622 211.097 16.0129C211.097 15.3635 210.529 14.633 209.799 14.3895C209.149 14.146 208.825 13.5778 209.068 13.0908C209.393 12.6038 208.662 12.2791 207.526 12.2791C206.39 12.2791 205.416 12.6038 205.416 13.0908ZM215.156 25.6719C215.156 26.3213 214.831 26.8895 214.344 26.8895C213.938 26.8895 213.532 26.3213 213.532 25.6719C213.532 25.0226 213.938 24.4544 214.344 24.4544C214.831 24.4544 215.156 25.0226 215.156 25.6719Z" fill="#EC4015"/>
<path d="M228.224 13.4155C227.737 13.9836 227.493 15.12 227.818 15.8505C228.062 16.581 227.899 17.1492 227.412 17.1492C226.925 17.1492 226.519 16.6622 226.519 16.094C226.519 15.607 225.951 16.1752 225.302 17.4739C223.678 20.5583 223.76 22.831 225.708 25.2661C226.6 26.4025 227.331 27.9447 227.331 28.6752C227.331 29.8927 228.143 30.1362 233.013 30.1362C238.208 30.1362 238.695 29.9739 238.695 28.4317C238.695 26.8083 238.37 26.7271 233.419 27.133C230.497 27.2953 227.899 27.133 227.656 26.7271C226.682 25.1849 229.198 23.6427 232.932 23.6427C234.961 23.6427 237.152 23.318 237.802 22.9122C239.912 21.6135 237.802 20.396 233.337 20.396C230.172 20.396 228.954 20.0713 228.954 19.3408C228.954 17.3927 231.714 15.6882 235.042 15.3635C237.234 15.2012 238.37 14.7142 238.532 13.8213C238.695 12.7661 237.883 12.4414 233.987 12.3603C230.74 12.2791 228.873 12.6849 228.224 13.4155Z" fill="#EC4015"/>
<path d="M184.961 20.9642C186.178 21.2077 186.746 21.7758 186.422 22.5064C186.097 23.3992 186.828 23.6427 189.993 23.6427H194.052V26.4025C194.052 28.7564 193.808 29.081 192.428 28.7564C191.535 28.5129 190.561 28.0258 190.318 27.62C190.074 27.2142 187.72 26.8895 185.042 26.8895C180.983 26.8895 180.253 27.133 180.253 28.3505C180.253 29.3245 180.821 29.8116 182.201 29.7304C183.256 29.7304 184.474 29.4869 184.798 29.081C185.691 28.2693 189.019 28.3505 189.587 29.3245C189.831 29.7304 191.454 30.1362 193.24 30.1362C196 30.1362 196.406 29.8927 197.217 27.5388C197.867 25.8343 197.867 24.6979 197.298 24.1297C196.893 23.7239 196.487 22.6687 196.487 21.857C196.487 20.5583 195.756 20.396 189.831 20.4771C186.097 20.5583 183.906 20.8018 184.961 20.9642Z" fill="#EC4015"/>
<path d="M156.47 21.6947C156.146 22.0193 155.902 22.9934 155.902 23.805C155.902 24.7791 155.334 25.2661 153.954 25.2661C152.818 25.2661 151.681 25.5908 151.438 26.0778C151.113 26.5648 151.844 26.8895 153.061 26.8895C154.522 26.8895 155.415 27.3765 155.659 28.5128C155.902 29.4057 156.389 29.8927 156.876 29.6492C157.282 29.4057 157.363 28.4317 157.039 27.5388C156.633 26.1589 156.795 25.9154 157.85 26.3213C158.743 26.646 159.149 26.4024 159.149 25.4284C159.149 23.5615 157.282 20.9641 156.47 21.6947Z" fill="#EC4015"/>
<path d="M142.916 28.9187C142.916 29.6492 143.646 30.1362 144.62 30.1362C146.081 30.1362 146.162 29.9739 145.351 28.9187C144.782 28.2693 144.052 27.7012 143.646 27.7012C143.24 27.7012 142.916 28.2693 142.916 28.9187Z" fill="#EC4015"/>
<path d="M75.2206 21.2076C73.1914 26.0777 71.4868 30.2985 71.4868 30.542C71.4868 30.7855 72.542 30.9479 73.7595 30.9479C75.4641 30.9479 76.3569 30.3797 77.0063 28.9187C77.818 27.2141 78.4673 26.8894 81.6329 26.8894C84.7985 26.8894 85.2855 27.1329 85.7725 28.9187C86.1784 30.6232 86.7466 30.9479 89.0193 30.9479H91.779L90.5615 27.8635C83.9056 11.6297 84.2303 12.279 81.5518 12.279C79.0355 12.279 78.8732 12.5225 75.2206 21.2076ZM82.7693 21.7758C82.8505 22.344 82.1199 22.831 81.2271 22.831C79.3602 22.831 79.3602 22.831 80.4966 19.8277C81.3082 17.7174 81.4706 17.6362 82.0388 19.1784C82.4446 20.0713 82.7693 21.2888 82.7693 21.7758Z" fill="#404040"/>
<path d="M91.7793 19.8277C91.7793 26.7271 91.9416 27.62 93.6462 29.1622C95.1072 30.542 96.5683 30.9479 100.14 30.9479C104.523 30.9479 104.766 30.8667 104.766 28.9187C104.766 27.0518 104.442 26.8894 101.114 26.8894C97.867 26.8894 97.2988 26.6459 96.6494 24.779C96.1624 23.6427 95.8377 20.3959 95.8377 17.4739C95.8377 12.4414 95.7566 12.279 93.8085 12.279C91.7793 12.279 91.7793 12.279 91.7793 19.8277Z" fill="#404040"/>
<path d="M105.578 19.5842C105.578 26.3213 105.74 27.1329 107.607 28.9187C109.231 30.6232 110.367 30.9479 114.101 30.9479C118.322 30.9479 118.565 30.8667 118.565 28.9998C118.565 27.1329 118.159 26.9706 114.75 26.7271L110.854 26.4836L110.611 19.3407L110.367 12.279H108.013H105.578V19.5842Z" fill="#404040"/>
<path d="M17.1849 14.9576C15.7238 15.4446 13.2076 16.9868 11.7466 18.3667C9.31149 20.7206 8.98682 21.4511 8.98682 25.1849C8.98682 27.4576 9.23032 29.3245 9.555 29.3245C11.3407 29.3245 15.4803 24.9413 15.9673 22.4251C16.2108 20.9641 17.1849 19.016 18.0777 18.2043C19.9446 16.4998 21.4868 13.9024 20.594 13.9836C20.2693 14.0647 18.7271 14.4706 17.1849 14.9576Z" fill="#404040"/>
<path d="M40.6431 16.094C40.6431 17.4738 44.945 22.0193 46.2437 22.0193C47.0554 22.0193 49.9775 23.4803 52.8184 25.3472C55.5781 27.1329 58.0944 28.3505 58.419 28.107C59.2307 27.2141 51.2762 20.7206 46.2437 17.9609C41.4548 15.4446 40.6431 15.12 40.6431 16.094Z" fill="#404040"/>
<path d="M6.06492 17.8797C2.41233 20.1524 0.870117 22.6687 0.870117 26.646C0.870117 31.2726 1.84414 33.5453 5.90259 37.9284C12.2338 44.7466 21.487 48.0745 34.1493 47.9122C42.5097 47.831 49.8961 46.6135 43.3214 46.4511C38.0454 46.2888 24.6526 42.9609 19.7825 40.5258C18.8084 40.0388 17.5097 39.8765 16.7792 40.12C15.9675 40.4447 15.724 40.2011 15.9675 39.5518C16.211 38.9836 14.9123 37.6037 13.0454 36.305C6.22726 31.8408 4.76622 25.5908 8.987 19.7466C11.0162 16.9057 11.1786 16.3375 10.0422 16.3375C9.23051 16.3375 7.44479 17.068 6.06492 17.8797Z" fill="#404040"/>
<path d="M48.5162 31.5161C48.8409 33.6265 49.8149 35.331 51.6818 36.8732C54.7662 39.4706 57.2825 45.3148 56.4708 48.1557C56.1461 49.1297 54.8474 51.4024 53.5487 53.0258C50.7078 56.5972 51.763 57.0843 56.8766 54.4869C65.5617 50.0226 63.9383 37.2791 53.8734 30.8667C48.7597 27.7011 47.948 27.7823 48.5162 31.5161Z" fill="#404040"/>
<path d="M133.175 37.8473C131.877 39.3895 132.851 40.6882 135.286 40.6882C136.341 40.6882 137.234 41.0129 137.234 41.4999C137.234 41.9057 136.341 42.3116 135.205 42.3116C134.068 42.3116 133.175 42.6362 133.175 43.1232C133.175 43.5291 134.474 43.9349 136.016 43.9349C137.721 43.9349 138.857 43.5291 138.857 42.9609C138.857 42.2304 139.101 42.2304 139.831 42.9609C140.399 43.5291 142.185 43.9349 143.89 43.9349C146.406 43.9349 146.974 43.6103 146.974 42.3116C146.974 41.4187 147.299 40.6882 147.786 40.6882C148.192 40.6882 149.003 41.4187 149.571 42.3116C151.114 44.7466 151.844 44.2596 151.925 40.8505V37.8473L153.224 40.8505C154.766 44.6655 155.984 44.7466 157.769 41.2564L159.068 38.659V41.2564C159.149 45.396 160.773 44.4219 160.773 40.2823C160.773 37.1979 160.529 36.6297 159.149 36.6297C158.256 36.6297 157.039 37.6038 156.39 38.8213L155.253 41.094L154.685 38.9025C154.117 36.7921 154.117 36.7921 147.136 36.8732C140.399 37.0356 140.075 37.1168 139.831 38.9025C139.588 40.2012 139.263 40.5258 138.614 40.0388C138.045 39.5518 136.909 39.0648 136.016 38.8213C134.799 38.4966 134.961 38.4155 136.666 38.3343C137.883 38.3343 138.857 37.8473 138.857 37.4414C138.857 36.2239 134.312 36.4674 133.175 37.8473ZM145.351 39.0648C145.351 39.4707 144.377 39.8765 143.24 39.8765C142.104 39.8765 141.373 39.5518 141.698 39.0648C141.942 38.5778 142.916 38.2531 143.808 38.2531C144.62 38.2531 145.351 38.5778 145.351 39.0648ZM149.815 39.0648C149.571 39.4707 148.76 39.8765 148.11 39.8765C147.461 39.8765 146.974 39.4707 146.974 39.0648C146.974 38.5778 147.705 38.2531 148.679 38.2531C149.571 38.2531 150.058 38.5778 149.815 39.0648ZM145.351 41.4999C145.351 41.9057 144.62 42.3116 143.808 42.3116C142.916 42.3116 141.942 41.9057 141.698 41.4999C141.373 41.0129 142.104 40.6882 143.24 40.6882C144.377 40.6882 145.351 41.0129 145.351 41.4999Z" fill="#404040"/>
<path d="M162.559 37.6038C160.205 39.9577 161.99 43.9349 165.4 43.9349C166.455 43.9349 167.266 43.5291 167.266 43.1232C167.266 42.6362 166.536 42.3116 165.724 42.3116C164.101 42.3116 162.883 40.2823 163.695 38.9836C163.938 38.5778 164.831 38.2531 165.724 38.2531C166.536 38.2531 167.266 37.8473 167.266 37.4414C167.266 36.3051 163.776 36.3862 162.559 37.6038Z" fill="#404040"/>
<path d="M167.916 38.7401C167.266 40.2012 167.185 41.1752 167.835 42.1492C168.727 43.6914 172.948 44.5031 172.948 43.2044C172.948 42.7174 172.218 42.3116 171.325 42.3116C169.133 42.3116 169.296 40.8505 171.568 40.4447L173.354 40.12L171.568 39.9577C169.296 39.8765 169.052 38.2531 171.325 38.2531C172.218 38.2531 172.948 37.8473 172.948 37.4414C172.948 36.9544 172.055 36.6297 170.919 36.6297C169.458 36.6297 168.565 37.2791 167.916 38.7401Z" fill="#404040"/>
<path d="M174.328 37.1979C174.003 37.4414 173.76 38.4155 173.76 39.2271C173.76 40.2823 174.328 40.6882 175.789 40.6882C176.925 40.6882 177.818 41.0129 177.818 41.4999C177.818 41.9057 176.925 42.3116 175.789 42.3116C174.653 42.3116 173.76 42.6362 173.76 43.1232C173.76 44.5031 179.442 44.0973 179.929 42.7174C180.578 41.1752 179.036 39.2271 176.763 38.8213C175.302 38.4966 175.383 38.4155 177.25 38.3343C178.468 38.3343 179.442 37.8473 179.442 37.4414C179.442 36.5486 175.14 36.3051 174.328 37.1979Z" fill="#404040"/>
<path d="M101.519 39.0648C78.8733 39.5518 82.2012 40.4446 108.662 41.0128C127.575 41.3375 128.305 41.2563 128.305 39.7953C128.305 38.4154 127.737 38.2531 124.084 38.4154C121.73 38.4966 111.584 38.8213 101.519 39.0648Z" fill="#404040"/>
<path d="M184.474 39.5518C184.717 41.0128 185.61 41.094 205.415 40.7693C230.172 40.4446 236.097 39.2271 213.532 39.1459C204.847 39.0647 194.62 38.8212 190.886 38.4966C184.555 38.0095 184.149 38.0907 184.474 39.5518Z" fill="#404040"/>
<path d="M49.2467 45.1524C39.9123 53.4317 22.1363 53.594 9.47398 45.5583C7.36359 44.1784 5.33437 43.2856 5.09086 43.5291C4.84736 43.7726 6.79541 46.1265 9.47398 48.7239C17.672 56.6784 29.198 58.87 41.8603 54.8927C42.7532 54.6492 41.8603 55.3797 39.8311 56.5161L36.1785 58.6265L39.8311 58.1395C45.1883 57.4089 50.0584 54.9739 51.4383 52.2953C52.8993 49.5356 54.1168 42.3115 53.1428 42.3115C52.737 42.3927 50.9513 43.6102 49.2467 45.1524Z" fill="#404040"/>
<path d="M177.088 13.659C177.007 15.3635 176.601 15.5259 171.812 15.5259C168.89 15.5259 166.373 15.7694 166.211 16.0941C165.968 16.4999 168.322 16.5811 171.487 16.4999C177.088 16.1752 178.549 15.3635 177.575 12.9285C177.331 12.3603 177.088 12.685 177.088 13.659Z" fill="#C14040"/>
<path d="M196.487 13.8214C196.487 15.1201 195.838 15.5259 192.672 15.7694L188.776 16.0129L193.078 16.1753C197.056 16.3376 197.299 16.2564 197.299 14.3084C197.299 13.172 197.137 12.2792 196.893 12.2792C196.65 12.2792 196.487 13.0097 196.487 13.8214Z" fill="#C14040"/>
<path d="M238.695 13.8214C238.695 15.1201 238.046 15.5259 234.88 15.7694L230.984 16.0129L235.286 16.1753C239.263 16.3376 239.507 16.2564 239.507 14.3084C239.507 13.172 239.344 12.2792 239.101 12.2792C238.857 12.2792 238.695 13.0097 238.695 13.8214Z" fill="#C14040"/>
<path d="M33.5812 16.7434C33.5812 18.5291 33.7435 19.1784 33.9058 18.1233C34.0682 17.1492 34.0682 15.6882 33.9058 14.8765C33.6623 14.146 33.5 14.9577 33.5812 16.7434Z" fill="#C14040"/>
<path d="M141.536 18.3668C141.536 20.1525 141.698 20.8019 141.86 19.7467C142.023 18.7726 142.023 17.3116 141.86 16.4999C141.617 15.7694 141.455 16.5811 141.536 18.3668Z" fill="#C14040"/>
<path d="M229.361 17.961C228.387 19.5843 229.929 20.396 234.231 20.396C238.127 20.396 238.614 20.5584 238.939 22.1817C239.263 23.8051 239.263 23.724 239.426 21.7759C239.507 19.5843 239.426 19.5843 234.555 19.5843C230.497 19.5843 229.685 19.3408 230.091 18.3668C230.578 16.9869 230.091 16.7434 229.361 17.961Z" fill="#C14040"/>
<path d="M170.757 20.1525C171.974 20.3149 173.76 20.3149 174.815 20.1525C175.789 19.9902 174.815 19.8279 172.542 19.8279C170.351 19.8279 169.458 19.9902 170.757 20.1525Z" fill="#C14040"/>
<path d="M188.208 20.1525C189.669 20.3149 191.861 20.3149 193.078 20.1525C194.296 19.9902 193.078 19.8279 190.4 19.8279C187.721 19.8279 186.747 19.9902 188.208 20.1525Z" fill="#C14040"/>
<path d="M146.406 28.5129C146.163 29.568 145.27 30.1362 144.052 30.1362C142.591 30.1362 142.266 29.8116 142.591 28.6752C142.997 27.5388 142.916 27.4577 142.185 28.5129C140.724 30.5421 141.13 31.0291 143.809 30.7856C145.594 30.6232 146.568 29.9739 147.055 28.6752C147.461 27.7012 147.542 26.8895 147.299 26.8895C147.055 26.8895 146.65 27.62 146.406 28.5129Z" fill="#C14040"/>
<path d="M238.695 28.5129C238.695 29.8116 238.046 30.1363 233.662 30.3798L228.549 30.6233L234.068 30.7856C239.344 30.948 239.507 30.8668 239.507 28.9187C239.507 27.7824 239.344 26.8895 239.101 26.8895C238.857 26.8895 238.695 27.62 238.695 28.5129Z" fill="#C14040"/>
<path d="M15.6431 30.1362C15.6431 31.6784 15.8054 32.3278 16.0489 31.5161C16.2112 30.7855 16.2112 29.4868 16.0489 28.6752C15.8054 27.9446 15.6431 28.594 15.6431 30.1362Z" fill="#C14040"/>
<path d="M36.5036 31.1103C36.8282 33.383 36.9906 33.4642 37.2341 31.8408C37.3964 30.7856 37.2341 29.6493 36.8282 29.2434C36.3412 28.7564 36.2601 29.4869 36.5036 31.1103Z" fill="#C14040"/>
<path d="M217.591 29.1623C217.591 29.7305 216.374 30.2175 214.994 30.2175C212.396 30.3798 212.315 30.3798 214.669 30.7045C216.942 31.1103 219.215 29.8116 218.159 28.7564C217.835 28.5129 217.591 28.6753 217.591 29.1623Z" fill="#C14040"/>
<path d="M126.114 30.7044C126.844 30.8668 128.143 30.8668 128.955 30.7044C129.685 30.4609 129.036 30.2986 127.494 30.2986C125.951 30.2986 125.302 30.4609 126.114 30.7044Z" fill="#C14040"/>
<path d="M161.422 30.7044C164.182 30.8668 168.565 30.8668 171.163 30.7044C173.679 30.5421 171.406 30.4609 166.049 30.4609C160.692 30.4609 158.581 30.5421 161.422 30.7044Z" fill="#C14040"/>
<path d="M182.445 30.7044C183.906 30.8668 186.503 30.8668 188.127 30.7044C189.831 30.5421 188.695 30.3797 185.529 30.3797C182.445 30.3797 181.065 30.5421 182.445 30.7044Z" fill="#C14040"/>
<path d="M200.789 30.7044C201.52 30.8668 202.818 30.8668 203.63 30.7044C204.36 30.4609 203.711 30.2986 202.169 30.2986C200.627 30.2986 199.977 30.4609 200.789 30.7044Z" fill="#C14040"/>
<path d="M47.3799 35.8181C47.3799 38.2531 47.5422 39.3083 47.7046 38.0096C47.8669 36.7921 47.8669 34.8441 47.7046 33.5453C47.5422 32.3278 47.3799 33.383 47.3799 35.8181Z" fill="#C14040"/>
<path d="M26.9256 2.86352C25.6269 5.13625 26.2762 6.59729 28.549 6.59729C30.4158 6.59729 30.497 6.11028 28.8736 4.40573C27.8996 3.43171 27.8184 2.94469 28.549 2.05184C29.036 1.40248 29.1171 0.915472 28.7113 0.915472C28.3054 0.915472 27.4938 1.80833 26.9256 2.86352Z" fill="#EC4040"/>
<path d="M35.8539 7.73373C33.9058 10.8993 33.7435 11.7922 35.2857 11.224C35.8539 10.9805 36.8279 11.224 37.3149 11.711C37.9643 12.3604 38.2078 12.2792 38.2078 11.3052C38.2078 10.6558 38.4513 8.8701 38.6948 7.49023C39.4253 4.1623 37.9643 4.24347 35.8539 7.73373Z" fill="#EC4040"/>
<path d="M27.3313 8.95122C27.0878 9.35706 27.4125 10.0876 27.9807 10.6558C28.9547 11.3863 29.3605 11.2239 30.0911 9.92524C30.8216 8.46421 30.7404 8.2207 29.3605 8.2207C28.4677 8.2207 27.5748 8.54537 27.3313 8.95122Z" fill="#EC4040"/>
<path d="M23.1918 13.172C23.5165 14.2272 23.4353 14.7142 23.0295 14.4707C22.6236 14.146 22.2178 14.4707 22.2178 15.1201C22.2178 16.3376 25.8704 17.3116 26.5197 16.2564C27.0067 15.4447 24.4093 11.5486 23.3541 11.4675C22.9483 11.4675 22.9483 12.2791 23.1918 13.172Z" fill="#EC4040"/>
<path d="M130.091 15.6883C129.523 16.2565 129.198 17.3928 129.198 18.2857C129.279 19.9091 129.279 19.9091 129.685 18.3668C129.929 17.474 130.74 16.3376 131.471 15.7694C132.201 15.2013 132.364 14.7142 131.958 14.7142C131.471 14.7142 130.659 15.1201 130.091 15.6883Z" fill="#EC4040"/>
<path d="M34.2306 17.8797C34.1494 19.8278 34.3929 20.4771 34.9611 19.909C35.5293 19.3408 35.5293 18.3668 35.0422 17.0681C34.3117 15.2012 34.2306 15.2823 34.2306 17.8797Z" fill="#EC4040"/>
<path d="M208.419 18.1233C208.175 19.0973 208.256 20.4772 208.662 21.1266C209.312 22.2629 209.393 22.2629 209.474 21.2077C209.474 20.5584 209.717 19.1785 209.961 18.1233C210.286 17.1493 210.123 16.3376 209.636 16.3376C209.23 16.3376 208.662 17.1493 208.419 18.1233Z" fill="#EC4040"/>
<path d="M152.169 18.7726C152.494 19.909 152.899 21.5324 153.143 22.5064C153.468 23.8863 153.143 24.2921 151.195 24.698C149.896 24.9415 148.029 24.9415 147.055 24.698C146.081 24.4545 145.351 24.6168 145.351 25.185C145.351 25.672 145.757 26.0778 146.244 26.0778C146.649 26.0778 146.812 26.4025 146.568 26.8895C145.757 28.1882 144.539 27.8635 144.539 26.2402C144.539 25.1038 144.377 25.1038 143.809 25.9967C143.24 26.8083 143.484 27.5389 144.377 28.1882C145.513 28.9999 145.919 28.9999 146.406 28.0259C146.731 27.3765 147.948 26.8895 149.003 26.8895C150.059 26.8895 151.195 26.4837 151.438 26.0778C151.682 25.5908 152.818 25.2661 153.955 25.2661C155.253 25.2661 155.903 24.7791 155.903 23.8051C155.903 22.9934 156.227 22.0194 156.633 21.5324C157.12 21.1265 157.039 20.2337 156.309 19.3408C155.578 18.3668 155.091 18.1233 154.685 18.7726C154.279 19.422 153.711 19.1785 152.899 18.2045C151.844 16.8246 151.763 16.9057 152.169 18.7726Z" fill="#EC4040"/>
<path d="M182.202 18.935C180.578 20.6396 180.578 20.7208 182.039 22.1818C183.744 23.8863 186.016 23.8863 186.585 22.1818C186.747 21.6136 186.098 21.2078 184.961 21.1266C183.744 21.0454 183.581 20.8831 184.393 20.6396C185.286 20.3961 185.611 19.7467 185.367 18.6915C184.799 16.7435 184.312 16.7435 182.202 18.935Z" fill="#EC4040"/>
<path d="M126.033 20.883C126.114 21.6136 126.763 22.4253 127.331 22.6688C128.062 22.9123 128.386 22.5064 128.143 21.5324C128.062 20.8019 127.412 19.9902 126.844 19.7467C126.114 19.5032 125.789 19.909 126.033 20.883Z" fill="#EC4040"/>
<path d="M17.6721 22.3441C16.9416 24.8603 17.5909 26.2402 18.6461 24.5356C19.2143 23.6428 19.4578 23.6428 19.7825 24.5356C20.026 25.185 20.1883 24.3733 20.2695 22.8311C20.2695 20.6395 20.1072 20.3149 19.6202 21.6136L18.9708 23.2369L18.565 21.6136C18.3215 20.2337 18.1591 20.396 17.6721 22.3441Z" fill="#EC4040"/>
<path d="M41.1297 22.0194C41.7791 24.5356 41.9414 24.698 42.9966 24.3733C43.4024 24.211 43.0778 23.1558 42.1849 22.0194L40.5615 19.9902L41.1297 22.0194Z" fill="#EC4040"/>
<path d="M23.5977 22.2629C23.5977 23.7239 25.8704 25.672 26.6009 24.9415C27.3314 24.2921 25.8704 21.8571 24.5717 21.3701C24.0035 21.2077 23.5977 21.6136 23.5977 22.2629Z" fill="#EC4040"/>
<path d="M164.507 22.4252C164.182 23.4804 164.344 23.5616 165.643 22.8311C167.51 21.7759 167.753 21.2077 166.13 21.2077C165.481 21.2077 164.831 21.7759 164.507 22.4252Z" fill="#EC4040"/>
<path d="M192.916 24.8603C193.24 25.5908 192.753 26.3213 191.536 26.7272C189.75 27.4577 189.912 27.7823 192.672 28.7564C193.808 29.1622 194.052 28.7564 194.052 26.4836C194.052 24.9414 193.727 23.6427 193.24 23.6427C192.834 23.6427 192.672 24.2109 192.916 24.8603Z" fill="#EC4040"/>
<path d="M228.143 24.8604C227.656 25.5097 227.413 26.4026 227.737 26.8896C228.63 28.3506 229.604 27.7824 229.442 25.6721C229.361 23.3182 229.442 23.3182 228.143 24.8604Z" fill="#EC4040"/>
<path d="M213.533 25.672C213.533 26.3213 213.939 26.8895 214.344 26.8895C214.831 26.8895 215.156 26.3213 215.156 25.672C215.156 25.0226 214.831 24.4545 214.344 24.4545C213.939 24.4545 213.533 25.0226 213.533 25.672Z" fill="#EC4040"/>
<path d="M157.039 28.1071C157.12 29.5682 157.607 30.1364 158.744 30.1364C159.88 30.1364 160.042 29.8928 159.312 29.4058C158.744 29.0812 158.338 28.2695 158.5 27.7013C158.663 27.1331 158.338 26.5649 157.851 26.3214C157.283 26.1591 156.958 26.8084 157.039 28.1071Z" fill="#EC4040"/>
<path d="M225.708 27.7824C226.276 28.6753 226.844 29.2435 227.088 29C227.737 28.3506 226.682 26.0779 225.708 26.0779C225.14 26.0779 225.14 26.5649 225.708 27.7824Z" fill="#EC4040"/>
<path d="M35.7729 27.4578C35.7729 27.7824 36.3411 28.8376 36.9905 29.6493C38.3704 31.5162 39.7502 30.7045 38.5327 28.7565C37.5587 27.2143 35.7729 26.4026 35.7729 27.4578Z" fill="#EC4040"/>
<path d="M184.718 29.3247C184.393 29.8117 185.367 30.1364 187.153 30.1364C188.938 30.1364 189.912 29.8117 189.588 29.3247C189.344 28.8377 188.208 28.513 187.153 28.513C186.097 28.513 184.961 28.8377 184.718 29.3247Z" fill="#EC4040"/>
<path d="M32.5259 39.7954C32.5259 40.2012 33.0129 40.9318 33.6622 41.4188C34.4739 42.1493 34.8798 42.0681 35.2045 41.1753C35.448 40.5259 35.448 39.7954 35.2045 39.5519C34.4739 38.8214 32.5259 38.9837 32.5259 39.7954Z" fill="#EC4040"/>
</svg>
